<?xml version="1.0" encoding="iso-8859-1"?>
<!-- Generator: Adobe Illustrator 16.0.0, SVG Export Plug-In . SVG Version: 6.00 Build 0)  -->
<!DOCTYPE svg PUBLIC "-//W3C//DTD SVG 1.1//EN" "http://www.w3.org/Graphics/SVG/1.1/DTD/svg11.dtd">
<svg xmlns="http://www.w3.org/2000/svg" xmlns:xlink="http://www.w3.org/1999/xlink" version="1.1" id="Capa_1" x="0px" y="0px" width="512px" height="512px" viewBox="0 0 45.982 45.983" style="enable-background:new 0 0 45.982 45.983;" xml:space="preserve">
<g>
	<g>
		<g>
			<path d="M20.005,25.225v19.387c0,0.686,0.561,1.233,1.245,1.233h3.482c0.686,0,1.243-0.549,1.243-1.233V25.225     c-0.911,0.404-1.935,0.626-2.985,0.626C21.939,25.851,20.917,25.629,20.005,25.225z" fill="#000000"/>
			<path d="M31.545,11.504c1.838-1.358,2.368-3.92,1.156-5.91c-0.842-1.381-2.313-2.144-3.82-2.144     c-0.508,0-1.021,0.086-1.513,0.265c-0.411-2.041-2.216-3.578-4.377-3.578c-2.162,0-3.965,1.537-4.377,3.578     c-0.493-0.179-1.005-0.266-1.513-0.266c-1.507,0-2.978,0.763-3.819,2.145c-1.211,1.99-0.682,4.552,1.156,5.91     c-1.838,1.358-2.367,3.92-1.156,5.91c0.841,1.381,2.312,2.144,3.819,2.144c0.508,0,1.02-0.087,1.513-0.266     c0.412,2.042,2.215,3.578,4.377,3.578s3.966-1.536,4.377-3.578c0.493,0.179,1.005,0.266,1.514,0.266     c1.507,0,2.979-0.763,3.819-2.144C33.913,15.424,33.383,12.862,31.545,11.504z" fill="#000000"/>
			<path d="M4.658,32.833v12.229c0,0.437,0.389,0.782,0.825,0.782h2.215c0.435,0,0.776-0.347,0.776-0.782V32.833     c-0.581,0.252-1.24,0.391-1.909,0.391C5.898,33.223,5.239,33.084,4.658,32.833z" fill="#000000"/>
			<path d="M12.765,20.246c-0.534-0.878-1.471-1.364-2.43-1.364c-0.323,0-0.648,0.055-0.961,0.168     c-0.262-1.297-1.409-2.275-2.784-2.275s-2.521,0.978-2.783,2.275c-0.313-0.114-0.639-0.168-0.962-0.168     c-0.959,0-1.895,0.485-2.43,1.364c-0.771,1.266-0.434,2.895,0.736,3.759c-1.17,0.864-1.506,2.493-0.736,3.758     c0.534,0.878,1.47,1.365,2.429,1.365c0.323,0,0.648-0.059,0.963-0.171c0.261,1.3,1.408,2.276,2.783,2.276     s2.522-0.978,2.784-2.276c0.314,0.112,0.639,0.171,0.962,0.171c0.958,0,1.895-0.487,2.429-1.365     c0.771-1.265,0.434-2.896-0.735-3.758C13.199,23.141,13.537,21.512,12.765,20.246z" fill="#000000"/>
			<path d="M37.509,32.833v12.229c0,0.437,0.34,0.782,0.776,0.782H40.5c0.436,0,0.824-0.347,0.824-0.782V32.833     c-0.664,0.252-1.24,0.391-1.908,0.391S38.09,33.084,37.509,32.833z" fill="#000000"/>
			<path d="M44.833,24.006c1.17-0.864,1.506-2.494,0.734-3.759c-0.534-0.878-1.471-1.364-2.431-1.364     c-0.322,0-0.646,0.055-0.962,0.168c-0.262-1.297-1.409-2.275-2.783-2.275c-1.375,0-2.521,0.978-2.783,2.275     c-0.313-0.114-0.639-0.168-0.961-0.168c-0.959,0-1.896,0.485-2.431,1.364c-0.771,1.266-0.434,2.895,0.735,3.759     c-1.169,0.863-1.507,2.494-0.735,3.758c0.534,0.878,1.471,1.365,2.429,1.365c0.323,0,0.647-0.058,0.963-0.17     c0.263,1.299,1.407,2.274,2.783,2.274c1.375,0,2.522-0.977,2.783-2.274c0.314,0.112,0.641,0.17,0.963,0.17     c0.958,0,1.896-0.487,2.429-1.365C46.339,26.499,46.002,24.87,44.833,24.006z" fill="#000000"/>
		</g>
	</g>
</g>
<g>
</g>
<g>
</g>
<g>
</g>
<g>
</g>
<g>
</g>
<g>
</g>
<g>
</g>
<g>
</g>
<g>
</g>
<g>
</g>
<g>
</g>
<g>
</g>
<g>
</g>
<g>
</g>
<g>
</g>
</svg>
