<?xml version="1.0" encoding="iso-8859-1"?>
<!-- Generator: Adobe Illustrator 19.0.0, SVG Export Plug-In . SVG Version: 6.00 Build 0)  -->
<svg xmlns="http://www.w3.org/2000/svg" xmlns:xlink="http://www.w3.org/1999/xlink" version="1.1" id="Capa_1" x="0px" y="0px" viewBox="0 0 512 512" style="enable-background:new 0 0 512 512;" xml:space="preserve" width="512px" height="512px">
<g>
	<g>
		<polygon points="167.27,0 176.66,20.91 180.74,30 198.18,68.83 202.3,78 211.65,98.83 299.43,98.83 308.79,78 312.91,68.83     330.34,30 332.385,25.455 334.43,20.91 343.81,0   " fill="#000000"/>
	</g>
</g>
<g>
	<g>
		<polygon points="178.8,98.83 169.44,78 165.33,68.83 147.89,30 143.81,20.91 134.49,0.16 134.02,0.64 56.86,77.68 142.72,263.54     144.77,253.78 147.89,238.96 147.89,238.95 150.35,227.22 159.44,228.2 177.33,230.12 207.42,233.36 210.87,233.73 220.23,225.27     231.14,215.4   " fill="#000000"/>
	</g>
</g>
<g>
	<g>
		<polygon points="377.98,0.64 377.51,0.16 368.19,20.91 364.11,30 346.67,68.83 342.56,78 333.2,98.83 280.86,215.4 291.77,225.27     301.13,233.73 304.58,233.36 334.67,230.12 352.56,228.2 361.65,227.22 364.11,238.95 364.11,238.96 367.23,253.78 369.28,263.54     455.14,77.68   " fill="#000000"/>
	</g>
</g>
<g>
	<g>
		<path d="M256,325.93c-25.77,0-46.74,20.97-46.74,46.74c0,25.77,20.97,46.74,46.74,46.74s46.74-20.97,46.74-46.74    C302.74,346.9,281.77,325.93,256,325.93z" fill="#000000"/>
	</g>
</g>
<g>
	<g>
		<path d="M388.51,329.62l-40.91-23.5l-2.31-10.98v-0.01l-2.22-10.58l-5.16-24.56v-0.02l-0.01-0.02l-42.5,4.57l-4.41,0.47    l-12.01-10.89l-0.02-0.01h-0.01l-0.02-0.02h-0.01l-0.01-0.01l-0.02-0.02h-0.01l-11.56-10.46v-0.01l-0.13-0.11L256,233.34    l-11.19,10.12l-0.43,0.39l-0.61-0.27l0.26,0.58l-7.06,6.39l-3.85,3.49h-0.01l-0.02,0.02l-0.01,0.01h-0.01l-0.01,0.01l-0.01,0.01    h-0.01l-0.02,0.01l-0.03,0.02l-0.02,0.02l-11.96,10.85l-4.41-0.47l-42.5-4.57l-0.01,0.03v0.01l-5.16,24.56l-2.22,10.59    l-2.31,10.98l-40.91,23.5l19.29,43.05l-19.29,43.06l40.91,23.49l9.7,46.17l46.91-5.04L256,512l34.99-31.65l46.91,5.04l9.7-46.17    l40.91-23.49l-19.29-43.06L388.51,329.62z M256,449.41c-42.32,0-76.74-34.42-76.74-76.74c0-42.31,34.42-76.74,76.74-76.74    s76.74,34.43,76.74,76.74C332.74,414.99,298.32,449.41,256,449.41z" fill="#000000"/>
	</g>
</g>
<g>
</g>
<g>
</g>
<g>
</g>
<g>
</g>
<g>
</g>
<g>
</g>
<g>
</g>
<g>
</g>
<g>
</g>
<g>
</g>
<g>
</g>
<g>
</g>
<g>
</g>
<g>
</g>
<g>
</g>
</svg>
