<?xml version="1.0" encoding="iso-8859-1"?>
<!-- Generator: Adobe Illustrator 19.0.0, SVG Export Plug-In . SVG Version: 6.00 Build 0)  -->
<svg xmlns="http://www.w3.org/2000/svg" xmlns:xlink="http://www.w3.org/1999/xlink" version="1.1" id="Capa_1" x="0px" y="0px" viewBox="0 0 511.998 511.998" style="enable-background:new 0 0 511.998 511.998;" xml:space="preserve" width="512px" height="512px">
<g>
	<g>
		<path d="M406.566,330.957c-2.491-7.666-8.995-13.147-16.971-14.307l-79.286-11.521l-29.355-59.478    c20.693-9.494,35.108-30.396,35.108-54.613c0-11.86-3.469-22.917-9.426-32.24L360.47,56.086    c6.278-11.977,5.847-26.036-1.152-37.607C352.319,6.908,340.067,0,326.544,0h-141.09c-13.523,0-25.775,6.908-32.775,18.479    c-6.999,11.571-7.43,25.63-1.152,37.607l53.833,102.711c-5.956,9.323-9.426,20.38-9.426,32.24    c0,24.218,14.415,45.118,35.108,54.612l-29.354,59.478l-79.285,11.521c-7.976,1.159-14.48,6.641-16.972,14.307    c-2.492,7.666-0.454,15.926,5.319,21.555l57.371,55.923l-13.543,78.964c-1.363,7.944,1.841,15.824,8.363,20.562    c6.522,4.74,15.007,5.353,22.142,1.602l70.914-37.283l70.914,37.283c3.104,1.631,6.461,2.437,9.803,2.437    c4.341,0,8.654-1.361,12.339-4.039c6.522-4.738,9.726-12.618,8.363-20.562l-13.543-78.964l57.373-55.924    C407.02,346.882,409.057,338.623,406.566,330.957z M270.993,29.99h55.55c4.233,0,6.386,2.805,7.116,4.012    c0.729,1.206,2.214,4.416,0.25,8.164l-50.13,95.645c-4.02-2.106-8.298-3.784-12.786-4.941V29.99z M178.088,42.164    c-1.963-3.748-0.479-6.958,0.251-8.163c0.73-1.207,2.883-4.012,7.115-4.012h55.55v102.879c-4.487,1.158-8.766,2.835-12.786,4.941    L178.088,42.164z M225.925,191.038c0-16.582,13.491-30.074,30.074-30.074c16.583,0,30.074,13.491,30.074,30.074    c0,16.583-13.491,30.075-30.074,30.075S225.925,207.621,225.925,191.038z M319.568,390.248c-4.956,4.83-7.218,11.787-6.048,18.611    l11.269,65.705l-59.007-31.021c-6.127-3.222-13.442-3.222-19.568-0.001l-59.008,31.022l11.269-65.706    c1.17-6.822-1.092-13.778-6.047-18.608l-47.737-46.534l65.97-9.586c6.85-0.995,12.767-5.294,15.833-11.502l29.504-59.781    l29.505,59.783c3.064,6.206,8.982,10.505,15.828,11.499l65.973,9.587L319.568,390.248z" fill="#000000"/>
	</g>
</g>
<g>
</g>
<g>
</g>
<g>
</g>
<g>
</g>
<g>
</g>
<g>
</g>
<g>
</g>
<g>
</g>
<g>
</g>
<g>
</g>
<g>
</g>
<g>
</g>
<g>
</g>
<g>
</g>
<g>
</g>
</svg>
