<?xml version="1.0" encoding="iso-8859-1"?>
<!-- Generator: Adobe Illustrator 19.0.0, SVG Export Plug-In . SVG Version: 6.00 Build 0)  -->
<svg xmlns="http://www.w3.org/2000/svg" xmlns:xlink="http://www.w3.org/1999/xlink" version="1.1" id="Capa_1" x="0px" y="0px" viewBox="0 0 512 512" style="enable-background:new 0 0 512 512;" xml:space="preserve" width="512px" height="512px">
<g>
	<g>
		<path d="M471.975,417.887h31.471l-36.708-63.574h25.55l-86.33-149.527l-32.515,56.319L257.361,0l-96.602,215.735l-36.875-63.868    L24.106,324.69h31.246l-44.89,77.746h38.485L0,487.211h91.036V512h30.011v-24.789h269.907V512h30.011v-24.789H512L471.975,417.887    z M405.959,264.808l34.349,59.494h-68.696L405.959,264.808z M379.834,354.313h52.249l19.379,33.563h-91.008L379.834,354.313z     M257.262,73.654l62.025,139.51l-14.333,15.208l-38.411-27.824l-36.017,34.419l-19.148-58.841L257.262,73.654z M123.885,211.889    l47.799,82.79H76.087L123.885,211.889z M90.006,324.69h67.758l27.561,47.735H62.445L90.006,324.69z M51.982,457.2l31.62-54.764    h80.568l31.619,54.764H51.982z M339.944,417.887L317.245,457.2h-86.803l-31.62-54.764h38.485l-44.89-77.746h31.247l-44.386-76.878    l13.822-30.867l23.656,72.692l52.437-50.11l39.514,28.624l23.799-25.252l22.383,50.347l-35.258,61.07h25.55l-36.708,63.574    H339.944z M351.9,457.2l22.697-39.313h62.724l22.697,39.313H351.9z" fill="#000000"/>
	</g>
</g>
<g>
</g>
<g>
</g>
<g>
</g>
<g>
</g>
<g>
</g>
<g>
</g>
<g>
</g>
<g>
</g>
<g>
</g>
<g>
</g>
<g>
</g>
<g>
</g>
<g>
</g>
<g>
</g>
<g>
</g>
</svg>
