<?xml version="1.0" encoding="iso-8859-1"?>
<!-- Generator: Adobe Illustrator 19.0.0, SVG Export Plug-In . SVG Version: 6.00 Build 0)  -->
<svg version="1.1" id="Capa_1" xmlns="http://www.w3.org/2000/svg" xmlns:xlink="http://www.w3.org/1999/xlink" x="0px" y="0px"
	 viewBox="0 0 469.354 469.354" style="enable-background:new 0 0 469.354 469.354;" xml:space="preserve">
<g>
	<path style="fill:#303C42;" d="M464.979,365.427c-13.781-28.01-35.438-67.563-47.115-88.646c-2.854-5.167-9.375-7.01-14.5-4.167
		c-5.156,2.854-7.021,9.354-4.167,14.5c11.594,20.917,33.052,60.125,46.635,87.729c1.448,2.948,2.188,6.031,2.188,9.167
		c0,11.771-9.583,21.354-21.354,21.354H271.083l24.479-24.479c4.167-4.167,4.167-10.917,0-15.083
		c-4.167-4.167-10.917-4.167-15.083,0l-42.667,42.667c-4.167,4.167-4.167,10.917,0,15.083l42.667,42.667
		c2.083,2.083,4.813,3.125,7.542,3.125s5.458-1.042,7.542-3.125c4.167-4.167,4.167-10.917,0-15.083l-24.438-24.438h155.542
		c23.542,0,42.688-19.146,42.688-42.688C469.354,377.594,467.885,371.344,464.979,365.427z"/>
	<path style="fill:#303C42;" d="M202.688,405.344l-160,0.021c-11.771,0-21.354-9.583-21.354-21.354c0-3.135,0.74-6.219,2.188-9.167
		c22.453-45.643,52.534-99.331,90.301-164.753l8.189,32.919c1.208,4.854,5.563,8.094,10.344,8.094c0.854,0,1.719-0.104,2.583-0.313
		c5.719-1.427,9.198-7.208,7.781-12.927l-14.563-58.552c-1.417-5.719-7.26-9.146-12.927-7.781l-58.563,14.563
		c-5.719,1.427-9.198,7.208-7.781,12.927c1.427,5.719,7.208,9.146,12.927,7.781l34.185-8.503
		C57.702,264.596,27.216,319.004,4.375,365.427C1.469,371.344,0,377.594,0,384.01c0,23.542,19.146,42.688,42.688,42.688l160-0.021
		c5.896,0,10.667-4.781,10.667-10.667C213.354,410.115,208.573,405.344,202.688,405.344z"/>
	<path style="fill:#303C42;" d="M253.677,33.25c16.427,29.719,37.26,65.51,60.094,104.719
		c15.674,26.915,32.336,55.645,49.098,84.922l-34.296-8.536c-5.708-1.385-11.51,2.052-12.927,7.781
		c-1.417,5.708,2.063,11.5,7.781,12.927l58.552,14.573c0.844,0.208,1.708,0.313,2.573,0.313c1.917,0,3.823-0.521,5.5-1.521
		c2.427-1.458,4.167-3.823,4.854-6.573l14.573-58.563c1.417-5.719-2.063-11.5-7.781-12.927c-5.708-1.385-11.51,2.063-12.927,7.781
		l-8.16,32.81c-16.525-28.849-32.947-57.169-48.402-83.716c-22.74-39.063-43.5-74.708-59.865-104.313
		C264.406,8.573,250.313,0.01,234.667,0.01c-15.656,0-29.74,8.573-37.667,22.917c-16.26,29.406-38.438,67.563-63.333,110.385
		c-2.969,5.094-0.771,10.823,4.323,13.792c5.104,2.958,12.083,0.427,15.052-4.667c24.052-41.375,46.302-79.677,62.625-109.188
		C223.906,18.333,245.417,18.333,253.677,33.25z"/>
</g>
<linearGradient id="SVGID_1_" gradientUnits="userSpaceOnUse" x1="-64.342" y1="615.9387" x2="-44.5608" y2="606.7145" gradientTransform="matrix(21.3333 0 0 -21.3333 1429.8994 13315.4551)">
	<stop  offset="0" style="stop-color:#FFFFFF;stop-opacity:0.2"/>
	<stop  offset="1" style="stop-color:#FFFFFF;stop-opacity:0"/>
</linearGradient>
<path style="fill:url(#SVGID_1_);" d="M464.979,365.427c-13.781-28.01-35.438-67.563-47.115-88.646
	c-2.854-5.167-9.375-7.01-14.5-4.167c-5.156,2.854-7.021,9.354-4.167,14.5c11.594,20.917,33.052,60.125,46.635,87.729
	c1.448,2.948,2.188,6.031,2.188,9.167c0,11.771-9.583,21.354-21.354,21.354H271.083l24.479-24.479
	c4.167-4.167,4.167-10.917,0-15.083c-4.167-4.167-10.917-4.167-15.083,0l-42.667,42.667c-4.167,4.167-4.167,10.917,0,15.083
	l42.667,42.667c2.083,2.083,4.813,3.125,7.542,3.125s5.458-1.042,7.542-3.125c4.167-4.167,4.167-10.917,0-15.083l-24.438-24.438
	h155.542c23.542,0,42.688-19.146,42.688-42.688C469.354,377.594,467.885,371.344,464.979,365.427z M202.688,405.344l-160,0.021
	c-11.771,0-21.354-9.583-21.354-21.354c0-3.135,0.74-6.219,2.188-9.167c22.453-45.643,52.534-99.331,90.301-164.753l8.189,32.919
	c1.208,4.854,5.563,8.094,10.344,8.094c0.854,0,1.719-0.104,2.583-0.313c5.719-1.427,9.198-7.208,7.781-12.927l-14.563-58.552
	c-1.417-5.719-7.26-9.146-12.927-7.781l-58.563,14.563c-5.719,1.427-9.198,7.208-7.781,12.927c1.427,5.719,7.208,9.146,12.927,7.781
	l34.185-8.503C57.702,264.596,27.216,319.004,4.375,365.427C1.469,371.344,0,377.594,0,384.01c0,23.542,19.146,42.688,42.688,42.688
	l160-0.021c5.896,0,10.667-4.781,10.667-10.667C213.354,410.115,208.573,405.344,202.688,405.344z M253.677,33.25
	c16.427,29.719,37.26,65.51,60.094,104.719c15.674,26.915,32.336,55.645,49.098,84.922l-34.296-8.536
	c-5.708-1.385-11.51,2.052-12.927,7.781c-1.417,5.708,2.063,11.5,7.781,12.927l58.552,14.573c0.844,0.208,1.708,0.313,2.573,0.313
	c1.917,0,3.823-0.521,5.5-1.521c2.427-1.458,4.167-3.823,4.854-6.573l14.573-58.563c1.417-5.719-2.063-11.5-7.781-12.927
	c-5.708-1.385-11.51,2.063-12.927,7.781l-8.16,32.81c-16.525-28.849-32.947-57.169-48.402-83.716
	c-22.74-39.063-43.5-74.708-59.865-104.313C264.406,8.573,250.313,0.01,234.667,0.01c-15.656,0-29.74,8.573-37.667,22.917
	c-16.26,29.406-38.438,67.563-63.333,110.385c-2.969,5.094-0.771,10.823,4.323,13.792c5.104,2.958,12.083,0.427,15.052-4.667
	c24.052-41.375,46.302-79.677,62.625-109.188C223.906,18.333,245.417,18.333,253.677,33.25z"/>
<g>
</g>
<g>
</g>
<g>
</g>
<g>
</g>
<g>
</g>
<g>
</g>
<g>
</g>
<g>
</g>
<g>
</g>
<g>
</g>
<g>
</g>
<g>
</g>
<g>
</g>
<g>
</g>
<g>
</g>
</svg>
