<?xml version="1.0" encoding="iso-8859-1"?>
<!-- Generator: Adobe Illustrator 19.0.0, SVG Export Plug-In . SVG Version: 6.00 Build 0)  -->
<svg xmlns="http://www.w3.org/2000/svg" xmlns:xlink="http://www.w3.org/1999/xlink" version="1.1" id="Capa_1" x="0px" y="0px" viewBox="0 0 511.998 511.998" style="enable-background:new 0 0 511.998 511.998;" xml:space="preserve" width="512px" height="512px">
<g>
	<g>
		<path d="M490.432,98.73c-17.395-4.175-28.835-12.227-31.015-15.135c-2.731-6.659-6.351-12.971-10.766-18.766v-0.001    c-11.11-14.581-36.498-28.608-65.996-24.962c-25.368,3.139-61.339,20.542-90.4,84.887    c-62.085,29.503-91.329,66.17-122.233,104.925c-32.243,40.433-65.584,82.243-141.495,127.083L0,373.612l31.472,10.358    c29.492,9.706,84.205,21.688,141.342,23.511c5.262,0.167,10.454,0.251,15.574,0.251c11.304,0,22.254-0.417,32.86-1.231    c-3.062,10.374-7.634,22.752-13.396,36.165h-40.464v30.051h188.325v-30.051h-40.368c-5.086-11.771-14.346-31.866-25.005-48.71    c24.672-7.549,46.546-18.178,65.479-31.877c53.145-38.459,80.766-99.558,82.15-181.672c4.424-4.963,7.528-10.664,10.361-15.872    c4.127-7.583,6.896-12.277,10.541-13.519l1.089-0.37c9.94-3.364,24.961-8.449,39.232-28.629l12.807-18.109L490.432,98.73z     M240.365,442.665c5.01-12.617,10.049-27.045,12.91-40.043c1.986-0.335,3.959-0.685,5.916-1.053    c8.128,10.842,16.679,27.262,23.169,41.096H240.365z M450.326,122.182l-1.148,0.39c-15.005,5.115-22.078,18.109-27.242,27.597    c-2.598,4.776-5.286,9.712-7.842,11.594l-6.12,4.504v7.599c0,75.232-23.474,130.365-69.771,163.868    c-46.636,33.749-110.727,41.885-168.933,39.507c20.323-8.114,38.291-17.786,52.815-26.721    c38.11-23.444,71.77-54.067,85.752-78.011l-25.95-15.152c-9.568,16.385-36.639,43.632-75.548,67.569    c-42.421,26.098-87.064,40.597-125.897,40.93c-2.532-0.543-5.008-1.091-7.409-1.644c60.883-41.05,92.318-80.473,120.485-115.797    c30.733-38.54,57.275-71.824,116.434-98.749l5.295-2.409l2.292-5.347c18.862-44.011,42.655-68.983,68.808-72.218    c19.491-2.414,34.29,7.951,38.403,13.349c2.888,3.79,5.238,7.911,6.985,12.25c3.775,9.37,14.473,17.598,26.898,23.718    C455.93,120.286,453.195,121.212,450.326,122.182z" fill="#000000"/>
	</g>
</g>
<g>
	<g>
		<circle cx="396.407" cy="99.325" r="15.715" fill="#000000"/>
	</g>
</g>
<g>
</g>
<g>
</g>
<g>
</g>
<g>
</g>
<g>
</g>
<g>
</g>
<g>
</g>
<g>
</g>
<g>
</g>
<g>
</g>
<g>
</g>
<g>
</g>
<g>
</g>
<g>
</g>
<g>
</g>
</svg>
