<?xml version="1.0" encoding="iso-8859-1"?>
<!-- Generator: Adobe Illustrator 16.0.0, SVG Export Plug-In . SVG Version: 6.00 Build 0)  -->
<!DOCTYPE svg PUBLIC "-//W3C//DTD SVG 1.1//EN" "http://www.w3.org/Graphics/SVG/1.1/DTD/svg11.dtd">
<svg xmlns="http://www.w3.org/2000/svg" xmlns:xlink="http://www.w3.org/1999/xlink" version="1.1" id="Capa_1" x="0px" y="0px" width="512px" height="512px" viewBox="0 0 612 612" style="enable-background:new 0 0 612 612;" xml:space="preserve">
<g>
	<g>
		<path d="M342.397,204.6C336.599,143.4,321.298,0,305.999,0c-15.3,0-30.6,143.4-36.3,204.6c9.6-7.7,23-13.4,36.3-13.4    C319.298,191.2,332.798,195.1,342.397,204.6z" fill="#000000"/>
		<circle cx="305.999" cy="248.6" r="38.2" fill="#000000"/>
		<path d="M363.397,241c0,1.9,0,5.7,0,7.6c0,25-14.699,45.4-36.299,53.6c55.5,24.899,187.4,84.1,195,70.7    C529.798,359.5,411.198,275.4,363.397,241z" fill="#000000"/>
		<path d="M248.698,248.6c0-1.9,0-5.7,0-7.6c-49.8,34.4-166.4,120.5-158.8,133.9c7.6,13.399,139.6-45.9,195.1-70.8l-17.2,288.8    c0,0,9.6,19.1,38.2,19.1s38.2-19.1,38.2-19.1L326.999,302.3c-6.5,2.4-13.5,3.8-21,3.8C273.499,306,248.698,281.1,248.698,248.6z" fill="#000000"/>
		<path d="M327.099,302.2L327.099,302.2L327.099,302.2L327.099,302.2z" fill="#000000"/>
	</g>
</g>
<g>
</g>
<g>
</g>
<g>
</g>
<g>
</g>
<g>
</g>
<g>
</g>
<g>
</g>
<g>
</g>
<g>
</g>
<g>
</g>
<g>
</g>
<g>
</g>
<g>
</g>
<g>
</g>
<g>
</g>
</svg>
