<?xml version="1.0" encoding="iso-8859-1"?>
<!-- Generator: Adobe Illustrator 19.0.0, SVG Export Plug-In . SVG Version: 6.00 Build 0)  -->
<svg xmlns="http://www.w3.org/2000/svg" xmlns:xlink="http://www.w3.org/1999/xlink" version="1.1" id="Capa_1" x="0px" y="0px" viewBox="0 0 512 512" style="enable-background:new 0 0 512 512;" xml:space="preserve" width="512px" height="512px">
<g>
	<g>
		<path d="M497,291.019c-28.106,0-41.712,20.383-52.645,36.76c-9.982,14.955-16.19,23.416-27.692,23.416    c-11.502,0-17.71-8.461-27.692-23.416c-10.933-16.377-24.538-36.76-52.644-36.76c-28.105,0-41.71,20.383-52.643,36.761    c-9.982,14.954-16.189,23.415-27.69,23.415c-11.5,0-17.708-8.461-27.689-23.415c-10.932-16.378-24.537-36.761-52.642-36.761    s-41.71,20.383-52.642,36.761c-9.982,14.954-16.189,23.415-27.69,23.415c-11.501,0-17.708-8.461-27.689-23.415    C56.71,311.402,43.105,291.019,15,291.019c-8.284,0-15,6.716-15,15s6.716,15,15,15c11.5,0,17.708,8.461,27.689,23.415    c10.932,16.378,24.537,36.761,52.642,36.761s41.71-20.383,52.642-36.761c9.982-14.954,16.189-23.415,27.689-23.415    s17.708,8.461,27.689,23.415c10.932,16.378,24.537,36.761,52.642,36.761c28.105,0,41.71-20.383,52.643-36.761    c9.982-14.954,16.189-23.415,27.69-23.415c11.501,0,17.709,8.461,27.692,23.416c10.933,16.377,24.538,36.76,52.645,36.76    s41.712-20.383,52.645-36.76c9.982-14.955,16.19-23.416,27.692-23.416c8.284,0,15-6.716,15-15    C512,297.734,505.284,291.019,497,291.019z" fill="#000000"/>
	</g>
</g>
<g>
	<g>
		<path d="M267.883,33.842c-6-7.789-17.767-7.79-23.768,0c-2.489,3.231-60.958,79.808-60.958,137.552    c0.002,40.259,32.678,73.012,72.843,73.012c40.165,0,72.841-32.753,72.841-73.012C328.841,113.651,270.372,37.074,267.883,33.842z     M256,214.407c-23.622,0-42.841-19.295-42.841-43.012c0-31.348,24.958-75.694,42.841-102.509    c17.885,26.818,42.841,71.162,42.841,102.509C298.841,195.112,279.622,214.407,256,214.407z" fill="#000000"/>
	</g>
</g>
<g>
	<g>
		<path d="M416.663,454c-11.502,0-17.71-8.461-27.693-23.416c-10.932-16.377-24.538-36.76-52.644-36.76    c-28.105,0-41.71,20.383-52.643,36.761C273.702,445.539,267.495,454,255.994,454c-11.5,0-17.708-8.461-27.689-23.415    c-10.932-16.378-24.537-36.761-52.642-36.761s-41.71,20.383-52.642,36.761C113.039,445.539,106.832,454,95.331,454    c-8.284,0-15,6.716-15,15s6.716,15,15,15c28.105,0,41.71-20.383,52.642-36.761c9.982-14.954,16.189-23.415,27.689-23.415    s17.708,8.461,27.689,23.415C214.284,463.617,227.889,484,255.994,484s41.71-20.383,52.643-36.761    c9.982-14.954,16.189-23.415,27.69-23.415c27.886,0,31.359,60.176,80.336,60.176c8.284,0,15-6.716,15-15S424.947,454,416.663,454z    " fill="#000000"/>
	</g>
</g>
<g>
</g>
<g>
</g>
<g>
</g>
<g>
</g>
<g>
</g>
<g>
</g>
<g>
</g>
<g>
</g>
<g>
</g>
<g>
</g>
<g>
</g>
<g>
</g>
<g>
</g>
<g>
</g>
<g>
</g>
</svg>
